<mxfile host="65bd71144e">
    <diagram id="dFRBOeBooWIgSXxVolc3" name="Page-1">
        <mxGraphModel dx="2170" dy="1394" grid="0" gridSize="10" guides="1" tooltips="1" connect="1" arrows="1" fold="1" page="0" pageScale="1" pageWidth="850" pageHeight="1100" math="0" shadow="0">
            <root>
                <mxCell id="0"/>
                <mxCell id="1" parent="0"/>
                <mxCell id="3" value="MongoDb" style="rounded=1;whiteSpace=wrap;html=1;" parent="1" vertex="1">
                    <mxGeometry x="856" y="-260" width="123" height="66" as="geometry"/>
                </mxCell>
                <mxCell id="4" value="Validator" style="rounded=0;whiteSpace=wrap;html=1;" parent="1" vertex="1">
                    <mxGeometry x="-38" y="159" width="160" height="80" as="geometry"/>
                </mxCell>
                <mxCell id="5" value="BCript&lt;br&gt;" style="rounded=1;whiteSpace=wrap;html=1;" parent="1" vertex="1">
                    <mxGeometry x="169" y="-258" width="124" height="62" as="geometry"/>
                </mxCell>
                <mxCell id="17" value="" style="rounded=0;whiteSpace=wrap;html=1;fillColor=none;" parent="1" vertex="1">
                    <mxGeometry x="357" y="127" width="473" height="244" as="geometry"/>
                </mxCell>
                <mxCell id="42" value="" style="edgeStyle=none;html=1;rounded=0;" edge="1" parent="1" source="18" target="19">
                    <mxGeometry relative="1" as="geometry"/>
                </mxCell>
                <mxCell id="43" value="" style="edgeStyle=none;html=1;rounded=0;" edge="1" parent="1" source="18" target="32">
                    <mxGeometry relative="1" as="geometry"/>
                </mxCell>
                <mxCell id="59" style="edgeStyle=none;html=1;entryX=0;entryY=0.5;entryDx=0;entryDy=0;rounded=0;" edge="1" parent="1" source="18">
                    <mxGeometry relative="1" as="geometry">
                        <mxPoint x="901" y="196" as="targetPoint"/>
                    </mxGeometry>
                </mxCell>
                <mxCell id="18" value="SignUpController" style="rounded=1;whiteSpace=wrap;html=1;" parent="1" vertex="1">
                    <mxGeometry x="549" y="157" width="166" height="80" as="geometry"/>
                </mxCell>
                <mxCell id="36" value="" style="edgeStyle=none;html=1;rounded=0;" edge="1" parent="1" source="19" target="35">
                    <mxGeometry relative="1" as="geometry"/>
                </mxCell>
                <mxCell id="19" value="&amp;lt;I&amp;gt; Controller" style="rounded=0;whiteSpace=wrap;html=1;dashed=1;" parent="1" vertex="1">
                    <mxGeometry x="549" y="258" width="160" height="80" as="geometry"/>
                </mxCell>
                <mxCell id="64" style="edgeStyle=none;html=1;rounded=0;" edge="1" parent="1" source="32" target="44">
                    <mxGeometry relative="1" as="geometry"/>
                </mxCell>
                <mxCell id="32" value="&amp;lt;I&amp;gt; EmailValidator" style="rounded=0;whiteSpace=wrap;html=1;dashed=1;" parent="1" vertex="1">
                    <mxGeometry x="385" y="157" width="137" height="78" as="geometry"/>
                </mxCell>
                <mxCell id="38" value="" style="edgeStyle=none;html=1;rounded=0;" edge="1" parent="1" source="35" target="37">
                    <mxGeometry relative="1" as="geometry"/>
                </mxCell>
                <mxCell id="35" value="ExpressRouteAdapter" style="rounded=0;whiteSpace=wrap;html=1;" vertex="1" parent="1">
                    <mxGeometry x="549" y="419" width="160" height="80" as="geometry"/>
                </mxCell>
                <mxCell id="37" value="Express" style="whiteSpace=wrap;html=1;rounded=0;" vertex="1" parent="1">
                    <mxGeometry x="569" y="561" width="120" height="60" as="geometry"/>
                </mxCell>
                <mxCell id="39" value="" style="rounded=0;whiteSpace=wrap;html=1;fillColor=none;" vertex="1" parent="1">
                    <mxGeometry x="169" y="130" width="172" height="126" as="geometry"/>
                </mxCell>
                <mxCell id="46" style="edgeStyle=none;html=1;rounded=0;" edge="1" parent="1" source="44">
                    <mxGeometry relative="1" as="geometry">
                        <mxPoint x="120.11460961235889" y="199" as="targetPoint"/>
                    </mxGeometry>
                </mxCell>
                <mxCell id="44" value="EmailValidatorAdapter" style="rounded=0;whiteSpace=wrap;html=1;" vertex="1" parent="1">
                    <mxGeometry x="192" y="169" width="135" height="60" as="geometry"/>
                </mxCell>
                <mxCell id="55" value="Presentation&lt;br&gt;" style="text;html=1;align=center;verticalAlign=middle;resizable=0;points=[];autosize=1;strokeColor=none;fillColor=none;rounded=0;" vertex="1" parent="1">
                    <mxGeometry x="745" y="93" width="85" height="26" as="geometry"/>
                </mxCell>
                <mxCell id="47" value="" style="rounded=0;whiteSpace=wrap;html=1;fillColor=none;" vertex="1" parent="1">
                    <mxGeometry x="870" y="127" width="362" height="239" as="geometry"/>
                </mxCell>
                <mxCell id="60" value="&amp;lt;I&amp;gt; AddAccount" style="rounded=0;whiteSpace=wrap;html=1;dashed=1;fillColor=none;" vertex="1" parent="1">
                    <mxGeometry x="902" y="166" width="120" height="60" as="geometry"/>
                </mxCell>
                <mxCell id="61" value="Domain" style="text;html=1;align=center;verticalAlign=middle;resizable=0;points=[];autosize=1;strokeColor=none;fillColor=none;rounded=0;" vertex="1" parent="1">
                    <mxGeometry x="1173" y="95" width="59" height="26" as="geometry"/>
                </mxCell>
                <mxCell id="65" value="Utils" style="text;html=1;align=center;verticalAlign=middle;resizable=0;points=[];autosize=1;strokeColor=none;fillColor=none;rounded=0;" vertex="1" parent="1">
                    <mxGeometry x="288" y="100" width="41" height="26" as="geometry"/>
                </mxCell>
                <mxCell id="92" style="edgeStyle=none;html=1;entryX=0.5;entryY=0;entryDx=0;entryDy=0;exitX=0.5;exitY=1;exitDx=0;exitDy=0;" edge="1" parent="1" source="70" target="60">
                    <mxGeometry relative="1" as="geometry">
                        <Array as="points">
                            <mxPoint x="598" y="91"/>
                            <mxPoint x="961" y="91"/>
                        </Array>
                    </mxGeometry>
                </mxCell>
                <mxCell id="67" value="" style="rounded=0;whiteSpace=wrap;html=1;fillColor=none;" vertex="1" parent="1">
                    <mxGeometry x="364.5" y="-114" width="465" height="190" as="geometry"/>
                </mxCell>
                <mxCell id="68" value="&amp;lt;I&amp;gt; Encripter" style="rounded=1;whiteSpace=wrap;html=1;dashed=1;" vertex="1" parent="1">
                    <mxGeometry x="399" y="-75" width="120" height="60" as="geometry"/>
                </mxCell>
                <mxCell id="69" value="&amp;lt;I&amp;gt; AddUserRepo" style="rounded=1;whiteSpace=wrap;html=1;dashed=1;" vertex="1" parent="1">
                    <mxGeometry x="652" y="-75" width="120" height="60" as="geometry"/>
                </mxCell>
                <mxCell id="72" style="edgeStyle=none;html=1;" edge="1" parent="1" source="70" target="67">
                    <mxGeometry relative="1" as="geometry"/>
                </mxCell>
                <mxCell id="74" style="edgeStyle=none;html=1;entryX=0.5;entryY=1;entryDx=0;entryDy=0;" edge="1" parent="1" source="70" target="68">
                    <mxGeometry relative="1" as="geometry">
                        <Array as="points">
                            <mxPoint x="458" y="33"/>
                        </Array>
                    </mxGeometry>
                </mxCell>
                <mxCell id="79" style="edgeStyle=none;html=1;entryX=0.634;entryY=1.008;entryDx=0;entryDy=0;entryPerimeter=0;exitX=1;exitY=0.514;exitDx=0;exitDy=0;exitPerimeter=0;" edge="1" parent="1" source="70" target="69">
                    <mxGeometry relative="1" as="geometry">
                        <Array as="points">
                            <mxPoint x="727" y="35"/>
                        </Array>
                    </mxGeometry>
                </mxCell>
                <mxCell id="70" value="DbAddAccount" style="rounded=1;whiteSpace=wrap;html=1;" vertex="1" parent="1">
                    <mxGeometry x="537" y="5" width="120" height="60" as="geometry"/>
                </mxCell>
                <mxCell id="71" value="Data" style="text;html=1;align=center;verticalAlign=middle;resizable=0;points=[];autosize=1;strokeColor=none;fillColor=none;" vertex="1" parent="1">
                    <mxGeometry x="780" y="-146" width="43" height="26" as="geometry"/>
                </mxCell>
                <mxCell id="81" value="" style="rounded=0;whiteSpace=wrap;html=1;fillColor=none;" vertex="1" parent="1">
                    <mxGeometry x="358.5" y="-292" width="464.5" height="146" as="geometry"/>
                </mxCell>
                <mxCell id="84" value="Infra" style="text;html=1;align=center;verticalAlign=middle;resizable=0;points=[];autosize=1;strokeColor=none;fillColor=none;rounded=1;" vertex="1" parent="1">
                    <mxGeometry x="785.5" y="-326" width="42" height="26" as="geometry"/>
                </mxCell>
                <mxCell id="88" style="edgeStyle=none;html=1;entryX=0.409;entryY=0.014;entryDx=0;entryDy=0;entryPerimeter=0;" edge="1" parent="1" source="85" target="68">
                    <mxGeometry relative="1" as="geometry"/>
                </mxCell>
                <mxCell id="90" style="edgeStyle=none;html=1;exitX=0;exitY=0.5;exitDx=0;exitDy=0;entryX=1;entryY=0.5;entryDx=0;entryDy=0;" edge="1" parent="1" source="85" target="5">
                    <mxGeometry relative="1" as="geometry"/>
                </mxCell>
                <mxCell id="85" value="BCriptAdapter" style="rounded=1;whiteSpace=wrap;html=1;fillColor=none;" vertex="1" parent="1">
                    <mxGeometry x="390" y="-256" width="120" height="60" as="geometry"/>
                </mxCell>
                <mxCell id="89" style="edgeStyle=none;html=1;entryX=0.462;entryY=0.005;entryDx=0;entryDy=0;entryPerimeter=0;" edge="1" parent="1" source="86" target="69">
                    <mxGeometry relative="1" as="geometry"/>
                </mxCell>
                <mxCell id="91" style="edgeStyle=none;html=1;" edge="1" parent="1" source="86" target="3">
                    <mxGeometry relative="1" as="geometry"/>
                </mxCell>
                <mxCell id="86" value="AddMongoRepo" style="rounded=1;whiteSpace=wrap;html=1;fillColor=none;" vertex="1" parent="1">
                    <mxGeometry x="646" y="-256" width="120" height="60" as="geometry"/>
                </mxCell>
            </root>
        </mxGraphModel>
    </diagram>
</mxfile>